# xmcd CD database file
#
# Track frame offsets:
#	150
#	22475
#	49652
#	70810
#	87847
#	100760
#	123450
#	139830
#	160512
#	181252
#	208377
#	222195
#	233915
#	247225
#
# Disc length: 3490 seconds
#
# Revision: 0
# Processed by: cddbd v1.4PL0 Copyright (c) Steve Scherf et al.
# Submitted via: CDex 1.50
#
DISCID=ce0da00e
DTITLE=Various Artist - Jazz Vocal
DYEAR=1900
DGENRE=Jazz
TTITLE0=The Very Thought Of You - Cheryl Bentyne
TTITLE1=Everything Happens To Me - Cheryl Bentyne
TTITLE2=Meaning Of The Blues - Cheryl Bentyne
TTITLE3=These Foolish Things - Cheryl Bentyne
TTITLE4=Lullaby Of Birdland - Chris Connor
TTITLE5=Sentimental Journey - Chris Connor
TTITLE6=Cry Me A River - Chris Connor
TTITLE7=Autumn In New York - Carolyn Leonhart
TTITLE8=What's New? - Cheryl Bentyne
TTITLE9=Stardust - Carolyn Leonhart
TTITLE10=All Of Me - Elisa Fiorillo
TTITLE11=Teach Me Tonight - Elisa Fiorillo
TTITLE12=When You Wish Upon A Star - Elisa Fiorillo
TTITLE13=You'd Be So Nice To Come Home To - Helen Merril
EXTD=
EXTT0=
EXTT1=
EXTT2=
EXTT3=
EXTT4=
EXTT5=
EXTT6=
EXTT7=
EXTT8=
EXTT9=
EXTT10=
EXTT11=
EXTT12=
EXTT13=
PLAYORDER=
